# xmcd
# Copyright (C) 1995-1998 Ti Kan
#
# Track frame offsets:
#       150
#       16429
#       34474
#       55455
#
# Disc length: 1000 seconds
#
# Revision: 0
# Processed by: cddbd v1.5.2PL0 Copyright (c) Steve Scherf et al.
# Submitted via: CD-Transfer v1.0
#
DISCID=3303e604
DTITLE=Andreas Winkler and The Sentimental Gangsters - 
DYEAR=08
DGENRE=
TTITLE0=Puttin´ On The Ritz
TTITLE1=Luna Rossa
TTITLE2=El Dia Que Me Quieras
TTITLE3=Cheek To Cheek
EXTD=
EXTT0=
EXTT1=
EXTT2=
EXTT3=
PLAYORDER=
